<svg xmlns="http://www.w3.org/2000/svg" width="133.724" height="40" viewBox="0 0 133.724 40">
  <defs>
    <style>
      .cls-1 {
        fill: #fff;
      }

      .cls-2 {
        fill: #00d6ff;
      }
    </style>
  </defs>
  <g id="s" transform="translate(-0.925 561)">
    <path id="Caminho_2" data-name="Caminho 2" class="cls-1" d="M8.544-560.66a5.052,5.052,0,0,1-.622.179,2.251,2.251,0,0,0-.594.215.557.557,0,0,1-.265.1,3.78,3.78,0,0,0-.964.438c-.056.036-.182.108-.279.158a10.39,10.39,0,0,0-2.55,2.216,10.751,10.751,0,0,0-1.53,2.675,8.9,8.9,0,0,0-.573,2.152,9.733,9.733,0,0,0,.258,4.519A10.07,10.07,0,0,0,4.542-543.3c.224.172.419.33.44.351a23.82,23.82,0,0,0,3.318,1.9c.426.222,1.181.631,1.676.9s.985.524,1.083.567a1.748,1.748,0,0,1,.279.136c.056.043.356.2.664.366s.608.323.664.359a1.286,1.286,0,0,0,.279.143c.1.043.552.28,1.013.531.894.481,2.738,1.463,3.6,1.922a3.869,3.869,0,0,1,1.5,1.327,3.51,3.51,0,0,1,.293.94,3.093,3.093,0,0,1-.671,2.647c-.733.8-.838.81-5.316.81-3.409,0-3.618-.007-3.723-.129s-.119-.387-.119-2.388a11.362,11.362,0,0,0-.084-2.346c-.119-.122-8.306-.122-8.424,0s-.119,13.477,0,13.6c.063.065,2.04.086,8.5.079,4.638,0,8.585-.029,8.774-.057a11.864,11.864,0,0,0,2.731-.732,1.237,1.237,0,0,1,.391-.136.282.282,0,0,0,.189-.093.792.792,0,0,1,.349-.179,1.019,1.019,0,0,0,.356-.194.287.287,0,0,1,.161-.108,4.232,4.232,0,0,0,.636-.387,10.741,10.741,0,0,0,2.312-2.152c.154-.186.335-.409.4-.481a2.348,2.348,0,0,0,.244-.359,3.5,3.5,0,0,1,.349-.574c.042-.057.217-.395.384-.746a14.267,14.267,0,0,0,.754-1.9c.077-.23.272-1.133.419-1.937a22.145,22.145,0,0,0,0-3.335c-.028-.158-.112-.559-.168-.9a5.52,5.52,0,0,0-.217-.846,1.25,1.25,0,0,1-.1-.351,3.026,3.026,0,0,0-.182-.552,11.315,11.315,0,0,0-2.55-4,11.431,11.431,0,0,0-2.389-1.915c-.2-.115-.552-.308-.782-.437a17.5,17.5,0,0,0-1.949-1,.151.151,0,0,1-.133-.1.385.385,0,0,0-.251-.151.521.521,0,0,1-.251-.115,4.125,4.125,0,0,0-.615-.352c-.314-.158-.622-.316-.678-.351a2.517,2.517,0,0,0-.279-.143c-.1-.043-.552-.287-1.013-.538s-1.2-.653-1.642-.889-1.32-.7-1.956-1.04-1.418-.76-1.739-.925c-.978-.516-1.013-.538-1.194-.739-.147-.158-.175-.258-.175-.631a.95.95,0,0,1,.489-.961c.2-.122.566-.129,6.811-.165l6.6-.036V-560.7l-7.439-.014C11.3-560.725,8.656-560.7,8.544-560.66Z" transform="translate(0 -0.261)"/>
    <path id="Caminho_3" data-name="Caminho 3" class="cls-1" d="M992.354-560.857a2.21,2.21,0,0,1-.524.143,1.185,1.185,0,0,0-.405.143,1.229,1.229,0,0,1-.335.143,5.817,5.817,0,0,0-.971.438c-.056.036-.182.108-.279.158a10.145,10.145,0,0,0-2.605,2.274,12.579,12.579,0,0,0-.964,1.47,2.732,2.732,0,0,1-.126.251c-.063.108-.189.387-.482,1.083a4.245,4.245,0,0,0-.189.574c-.028.136-.1.452-.175.71a10.923,10.923,0,0,0-.182,3.443,7.326,7.326,0,0,0,.21,1.305,1.459,1.459,0,0,1,.112.43,1.547,1.547,0,0,0,.14.452,2.63,2.63,0,0,1,.14.344,4.71,4.71,0,0,0,.238.574,11.01,11.01,0,0,0,.824,1.442,12.611,12.611,0,0,0,2.326,2.345c.272.186.755.488,1.083.674s.643.359.7.395.608.323,1.222.646,1.495.789,1.956,1.04.915.495,1.013.538a1.287,1.287,0,0,1,.279.143c.056.036.482.265.943.5s.887.466.943.509a2.533,2.533,0,0,0,.279.143c.1.043.426.215.733.387s.936.509,1.4.753c2.522,1.32,2.773,1.478,3.157,1.965a3.392,3.392,0,0,1,.65,1.9,3.135,3.135,0,0,1-1.194,2.46c-.615.387-.971.416-4.953.416-3.374,0-3.618-.007-3.674-.129-.035-.065-.077-1.169-.1-2.453l-.035-2.331-4.219-.021a41.2,41.2,0,0,0-4.31.065c-.133.115-.147,13.47-.014,13.606.063.065,2.04.086,8.466.079,4.617,0,8.592-.029,8.843-.057a11.475,11.475,0,0,0,2.766-.732,2.03,2.03,0,0,1,.356-.136,7.4,7.4,0,0,0,1.034-.523c.224-.143,1.027-.689,1.362-.932a11.62,11.62,0,0,0,1.8-1.843,8.616,8.616,0,0,0,.859-1.284.642.642,0,0,1,.133-.229,1.3,1.3,0,0,0,.182-.352.891.891,0,0,1,.126-.273,5.449,5.449,0,0,0,.468-1.169,2.457,2.457,0,0,1,.175-.466,1.077,1.077,0,0,0,.1-.387,2.222,2.222,0,0,1,.112-.466,14.051,14.051,0,0,0,.307-2.79,11.983,11.983,0,0,0-2.04-6.886,16.568,16.568,0,0,0-1.1-1.363,17.675,17.675,0,0,0-1.656-1.463,20.615,20.615,0,0,0-2.193-1.313,2.577,2.577,0,0,1-.279-.143,7.431,7.431,0,0,0-1.153-.567.135.135,0,0,1-.119-.065.778.778,0,0,0-.279-.194c-.971-.509-1.963-1.04-2.745-1.463-.5-.273-.985-.531-1.083-.574a1.287,1.287,0,0,1-.279-.143c-.056-.036-.356-.2-.664-.359s-1.062-.559-1.676-.889-1.474-.8-1.907-1.018c-1.195-.631-1.453-1.033-1.1-1.721a1.708,1.708,0,0,1,.37-.495c.189-.144.321-.144,6.755-.165,4.673-.014,6.587-.036,6.657-.093a27.358,27.358,0,0,0,.091-4.3c0-3.78-.014-4.217-.112-4.26-.063-.022-3.416-.043-7.453-.043C992.962-560.993,992.725-560.993,992.354-560.857Z" transform="translate(-912.937)"/>
    <path id="Caminho_4" data-name="Caminho 4" class="cls-1" d="M467.764-557.383a.31.31,0,0,0-.272.215,3.5,3.5,0,0,1-.161.373,2.2,2.2,0,0,0-.14.43,2.418,2.418,0,0,1-.182.5,1.056,1.056,0,0,0-.133.373,1.181,1.181,0,0,1-.14.395,1.3,1.3,0,0,0-.14.394,1.181,1.181,0,0,1-.14.395,1.3,1.3,0,0,0-.14.395,1.431,1.431,0,0,1-.133.43c-.14.33-.238.61-.405,1.133a4.485,4.485,0,0,1-.189.5,1.749,1.749,0,0,0-.14.395,3.85,3.85,0,0,1-.14.43,8.72,8.72,0,0,0-.461,1.291,1.222,1.222,0,0,1-.14.373,1.3,1.3,0,0,0-.14.395,1.431,1.431,0,0,1-.133.43c-.07.172-.168.423-.217.56s-.161.459-.258.717-.2.581-.237.717a5.092,5.092,0,0,1-.21.545,1.583,1.583,0,0,0-.133.409,1.211,1.211,0,0,1-.14.387,1.26,1.26,0,0,0-.14.416.587.587,0,0,1-.1.287,2.919,2.919,0,0,0-.2.5c-.056.194-.189.581-.293.861s-.217.617-.251.753-.119.344-.161.466-.154.395-.231.61-.224.61-.328.882a3.647,3.647,0,0,0-.182.588,1.222,1.222,0,0,1-.14.373,1.316,1.316,0,0,0-.14.38,1.731,1.731,0,0,1-.14.395,1.61,1.61,0,0,0-.14.416,1,1,0,0,1-.112.352,4.06,4.06,0,0,0-.21.56c-.1.344-.314.617-.433.545a.689.689,0,0,1-.119-.308,1.309,1.309,0,0,0-.133-.416,1.278,1.278,0,0,1-.147-.395,2.421,2.421,0,0,0-.182-.5,1.048,1.048,0,0,1-.133-.395.587.587,0,0,0-.1-.287,3.19,3.19,0,0,1-.2-.5c-.056-.2-.189-.588-.293-.861s-.224-.631-.279-.789-.175-.517-.279-.789-.23-.646-.279-.825a3.066,3.066,0,0,0-.2-.538,1,1,0,0,1-.112-.308,1.127,1.127,0,0,0-.1-.323c-.056-.129-.147-.373-.2-.552s-.182-.552-.286-.825-.217-.617-.251-.753-.112-.352-.161-.466a8.755,8.755,0,0,1-.461-1.291,1.223,1.223,0,0,0-.14-.373,1.351,1.351,0,0,1-.14-.366,1.13,1.13,0,0,0-.1-.323c-.056-.129-.147-.373-.2-.552s-.182-.552-.286-.825-.224-.631-.279-.789-.182-.517-.279-.789-.23-.646-.279-.825a3.067,3.067,0,0,0-.2-.538,1,1,0,0,1-.112-.308,1.127,1.127,0,0,0-.1-.323c-.056-.129-.147-.373-.2-.552-.112-.351-.279-.839-.566-1.614-.1-.28-.23-.646-.286-.818a.943.943,0,0,0-.189-.38c-.042-.029-2.1-.057-4.568-.057a34.387,34.387,0,0,0-4.513.086.789.789,0,0,0,.1.359,1.181,1.181,0,0,1,.133.394,1.037,1.037,0,0,0,.133.38,2.416,2.416,0,0,1,.182.5,1.819,1.819,0,0,0,.147.43,2.741,2.741,0,0,1,.161.43c.042.136.147.459.238.717s.217.581.258.717.14.394.21.574c.161.423.272.753.4,1.148a3.342,3.342,0,0,0,.2.5,2.2,2.2,0,0,1,.14.43,1.5,1.5,0,0,0,.14.395,1.5,1.5,0,0,1,.14.395,2.157,2.157,0,0,0,.161.466,2.456,2.456,0,0,1,.161.43c.028.115.133.423.224.681s.217.581.258.717.147.387.217.56a1.429,1.429,0,0,1,.133.43,1.057,1.057,0,0,0,.133.373,2.417,2.417,0,0,1,.182.5,1.5,1.5,0,0,0,.14.395,1.5,1.5,0,0,1,.14.395,1.5,1.5,0,0,0,.14.395,1.5,1.5,0,0,1,.14.395,4.015,4.015,0,0,0,.175.538c.07.158.161.4.21.538s.161.459.251.717.217.6.272.753.175.509.279.789.223.646.272.825a4.052,4.052,0,0,0,.21.538.953.953,0,0,1,.112.359.588.588,0,0,0,.1.287,2.919,2.919,0,0,1,.2.5c.056.194.189.581.293.861s.21.6.237.717a2.969,2.969,0,0,0,.161.43,2.033,2.033,0,0,1,.161.466,1.5,1.5,0,0,0,.14.395,1.5,1.5,0,0,1,.14.394,2.418,2.418,0,0,0,.182.5,1.057,1.057,0,0,1,.133.373,1.18,1.18,0,0,0,.14.395,1.3,1.3,0,0,1,.14.395,1.181,1.181,0,0,0,.14.395,1.314,1.314,0,0,1,.14.38.527.527,0,0,0,.091.244c.091.129.258.136,2.927.122,1.656-.007,2.906.014,3.011.057.251.1.2.316-.384,1.836-.077.194-.175.423-.217.5s-.119.23-.168.33a5.4,5.4,0,0,1-1.914,1.75,1.568,1.568,0,0,0-.314.143,3.06,3.06,0,0,1-.768.208,29.019,29.019,0,0,1-4.093.115c-3.06,0-3.479.014-3.576.115s-.112.588-.112,4.3c0,2.3.021,4.232.042,4.3.042.1.461.115,4.072.108,4.065-.007,4.317-.014,5.386-.237a12.748,12.748,0,0,0,3.213-1.126c.056-.036.2-.108.314-.165a13.73,13.73,0,0,0,4.38-3.809c.286-.395.58-.818.643-.933s.189-.344.286-.5.265-.495.384-.753a11.317,11.317,0,0,0,.7-1.722c.049-.136.14-.38.21-.538a4.018,4.018,0,0,0,.175-.538,1.5,1.5,0,0,1,.14-.395,1.5,1.5,0,0,0,.14-.395,1.5,1.5,0,0,1,.14-.395,1.5,1.5,0,0,0,.14-.395,2.419,2.419,0,0,1,.182-.5,1.055,1.055,0,0,0,.133-.373,1.181,1.181,0,0,1,.14-.395,1.352,1.352,0,0,0,.14-.366,2.189,2.189,0,0,1,.126-.43c.077-.186.175-.452.224-.588.2-.56.349-1,.524-1.471.1-.28.224-.646.272-.825a3.7,3.7,0,0,1,.21-.538.976.976,0,0,0,.112-.344,1.21,1.21,0,0,1,.14-.387,1.262,1.262,0,0,0,.14-.416.588.588,0,0,1,.1-.287,3.19,3.19,0,0,0,.2-.5c.112-.366.251-.768.573-1.65.1-.28.217-.617.251-.753a5.089,5.089,0,0,1,.21-.545,1.584,1.584,0,0,0,.133-.409,1.21,1.21,0,0,1,.14-.387,1.352,1.352,0,0,0,.14-.366,1.129,1.129,0,0,1,.1-.323c.056-.129.147-.373.2-.552.119-.366.3-.882.566-1.614.1-.28.231-.646.279-.825a3.07,3.07,0,0,1,.2-.538.99.99,0,0,0,.112-.323,1.439,1.439,0,0,1,.14-.394,1.44,1.44,0,0,0,.14-.395,1.438,1.438,0,0,1,.14-.395,1.827,1.827,0,0,0,.14-.38,1.127,1.127,0,0,1,.1-.323c.056-.129.147-.373.2-.552s.182-.552.286-.825c.384-1.047.468-1.3.559-1.614a3.07,3.07,0,0,1,.2-.538,1,1,0,0,0,.112-.308,1.128,1.128,0,0,1,.1-.323c.056-.129.147-.373.2-.552.112-.352.279-.839.566-1.614.1-.28.231-.631.279-.789s.182-.516.279-.789a4.232,4.232,0,0,0,.4-1.413C476.551-557.361,468.162-557.426,467.764-557.383Z" transform="translate(-410.725 -3.352)"/>
    <path id="Caminho_5" data-name="Caminho 5" class="cls-2" d="M1456.258-557.528c-.133.007-.314.036-.4.05l-.161.036v3.95a25.141,25.141,0,0,0,.091,3.972c.042.021,2.382.043,5.2.057a50.33,50.33,0,0,1,5.2.1c.084.086-.084.43-.531,1.1-.2.3-.566.911-.8,1.348-.056.108-.23.387-.377.624-.51.8-.719,1.147-.838,1.362-.154.287-.23.416-.58.975a2.689,2.689,0,0,0-.3.545.453.453,0,0,1-.14.2.42.42,0,0,0-.14.2,11.129,11.129,0,0,1-.852,1.434,3.592,3.592,0,0,0-.335.595.291.291,0,0,1-.112.172,1.143,1.143,0,0,0-.2.315,4.1,4.1,0,0,1-.189.366,10.2,10.2,0,0,0-.684,1.14.889.889,0,0,1-.14.244.389.389,0,0,0-.1.323c.049.136-.237.129,3.381.129,3.3,0,4.156.136,5.323.832a6.041,6.041,0,0,1,2.85,5.535,5.743,5.743,0,0,1-.964,2.839,6.41,6.41,0,0,1-1.369,1.47.406.406,0,0,0-.2.122,2.428,2.428,0,0,1-.685.416c-.133.065-.293.136-.356.172a7.593,7.593,0,0,1-2.13.437,6.56,6.56,0,0,1-2.759-.76.331.331,0,0,0-.182-.1,6.9,6.9,0,0,1-1.823-1.757,6.1,6.1,0,0,1-.852-2.115c-.147-1.075-.154-1.083-.328-1.154-.1-.036-1.921-.065-4.219-.065h-4.044l-.07.172a11.465,11.465,0,0,0,.426,3.649,2.611,2.611,0,0,1,.133.531,12.314,12.314,0,0,0,.845,2.172c.112.215.258.523.335.681A11.5,11.5,0,0,0,1453.9-524a17.849,17.849,0,0,0,3.129,3.348,5.513,5.513,0,0,0,1.167.781.287.287,0,0,1,.161.108,2.794,2.794,0,0,0,.587.358c.272.143.545.287.6.323a5.773,5.773,0,0,0,.929.4,2.289,2.289,0,0,1,.447.179,1.254,1.254,0,0,0,.405.136.894.894,0,0,1,.349.115,2.112,2.112,0,0,0,.559.151,5.711,5.711,0,0,1,.8.172,9.389,9.389,0,0,0,2.654.136,12.189,12.189,0,0,0,2.626-.115,8.421,8.421,0,0,1,.845-.179,2.13,2.13,0,0,0,.629-.172.968.968,0,0,1,.342-.107,1.08,1.08,0,0,0,.384-.129,1.951,1.951,0,0,1,.454-.186,14.585,14.585,0,0,0,2.012-1.011,1.242,1.242,0,0,1,.321-.179,17.5,17.5,0,0,0,2.109-1.671,16.548,16.548,0,0,0,2.8-3.6c.112-.208.524-1.068.65-1.362a15.792,15.792,0,0,0,.8-2.474,4.155,4.155,0,0,1,.14-.6,11.09,11.09,0,0,0,.154-1.506,18.916,18.916,0,0,0-.147-3.993c-.042-.136-.119-.459-.175-.717a9.765,9.765,0,0,0-.482-1.685.973.973,0,0,1-.112-.3,7.239,7.239,0,0,0-.636-1.4,14.7,14.7,0,0,0-1.222-2.029,16.743,16.743,0,0,0-2.263-2.445c-.133-.115-.259-.222-.279-.251s-.719-.538-1.118-.81c-.419-.287-.447-.351-.279-.667.077-.151.2-.373.279-.488s.2-.33.279-.466.182-.315.231-.394.224-.366.4-.652c.775-1.269.88-1.448,1.215-2.015.112-.186.314-.523.454-.739s.3-.48.356-.588c.328-.6.684-1.212.887-1.506a2.645,2.645,0,0,0,.231-.38,4.881,4.881,0,0,1,.314-.531,3.918,3.918,0,0,0,.314-.545.409.409,0,0,1,.119-.194,2.077,2.077,0,0,0,.189-.265c.405-.738.671-1.183.894-1.513a2.541,2.541,0,0,0,.266-.452.8.8,0,0,1,.133-.251c.468-.7.643-1.039.58-1.1S1457.026-557.592,1456.258-557.528Z" transform="translate(-1345.734 -3.206)"/>
  </g>
</svg>
